<svg xmlns="http://www.w3.org/2000/svg" viewBox="0 0 48 48"><linearGradient id="a" x1="846.928" x2="834.499" y1="-323.426" y2="-310.212" gradientTransform="matrix(3.0757 0 0 -3.0757 -2562.45 -951.146)" gradientUnits="userSpaceOnUse"><stop offset="0" stop-color="#5A5B5B"/><stop offset="1" stop-color="#656E84"/></linearGradient><path fill="url(#a)" d="M10.1 0h27.7C43.5 0 48 4.5 48 10.1v27.7C48 43.5 43.5 48 37.9 48H10.1C4.5 48 0 43.5 0 37.9V10.1C0 4.5 4.5 0 10.1 0z"/><path fill="#fff" d="M13.5 18c-2.2 0-4-1.8-4-4s1.8-4 4-4 4 1.8 4 4-1.8 4-4 4zm0-7c-1.7 0-3 1.3-3 3s1.3 3 3 3 3-1.3 3-3-1.3-3-3-3z"/><path fill="#fff" d="M13.5 16c-.5 0-1-.2-1.4-.6-.2-.2-.2-.5 0-.7s.5-.2.7 0c.4.4 1 .4 1.4 0 .2-.2.5-.2.7 0s.2.5 0 .7c-.4.4-.9.6-1.4.6z"/><circle cx="12.3" cy="13" r=".5" fill="#fff"/><circle cx="14.8" cy="13" r=".5" fill="#fff"/><path fill="#fff" d="M13.5 28c-2.2 0-4-1.8-4-4s1.8-4 4-4 4 1.8 4 4-1.8 4-4 4zm0-7c-1.7 0-3 1.3-3 3s1.3 3 3 3 3-1.3 3-3-1.3-3-3-3z"/><path fill="#fff" d="M14.6 25.5h-2.1c-.3 0-.5-.2-.5-.5s.2-.5.5-.5h2.1c.3 0 .5.2.5.5s-.3.5-.5.5z"/><circle cx="12.3" cy="23" r=".5" fill="#fff"/><circle cx="14.8" cy="23" r=".5" fill="#fff"/><path fill="#fff" d="M13.5 38c-2.2 0-4-1.8-4-4s1.8-4 4-4 4 1.8 4 4-1.8 4-4 4zm0-7c-1.7 0-3 1.3-3 3s1.3 3 3 3 3-1.3 3-3-1.3-3-3-3z"/><path fill="#fff" d="M14.6 36c-.1 0-.3 0-.4-.1-.4-.4-1-.4-1.4 0-.2.2-.5.2-.7 0s-.2-.5 0-.7c.7-.7 2.1-.7 2.8 0 .2.2.2.5 0 .7-.1.1-.2.1-.3.1z"/><circle cx="12.3" cy="33" r=".5" fill="#fff"/><circle cx="14.8" cy="33" r=".5" fill="#fff"/><path fill="#fff" d="M25 17h-5c-.3 0-.5-.2-.5-.5v-5c0-.3.2-.5.5-.5h5c.3 0 .5.2.5.5v5c0 .3-.2.5-.5.5zm-4.5-1h4v-4h-4v4z"/><path fill="#fff" d="M22.9 15.5c-.1 0-.3 0-.4-.1L21.1 14c-.2-.2-.2-.5 0-.7s.5-.2.7 0l1.1 1.1 3.2-3.2c.2-.2.5-.2.7 0s.2.5 0 .7l-3.5 3.5c-.1 0-.2.1-.4.1zM25 27h-5c-.3 0-.5-.2-.5-.5v-5c0-.3.2-.5.5-.5h5c.3 0 .5.2.5.5v5c0 .3-.2.5-.5.5zm-4.5-1h4v-4h-4v4zM25 37h-5c-.3 0-.5-.2-.5-.5v-5c0-.3.2-.5.5-.5h5c.3 0 .5.2.5.5v5c0 .3-.2.5-.5.5zm-4.5-1h4v-4h-4v4zM37 33h-9c-.3 0-.5-.2-.5-.5s.2-.5.5-.5h9c.3 0 .5.2.5.5s-.2.5-.5.5zm-3 2h-6c-.3 0-.5-.2-.5-.5s.2-.5.5-.5h6c.3 0 .5.2.5.5s-.2.5-.5.5zm3-12h-9c-.3 0-.5-.2-.5-.5s.2-.5.5-.5h9c.3 0 .5.2.5.5s-.2.5-.5.5zm-3 2h-6c-.3 0-.5-.2-.5-.5s.2-.5.5-.5h6c.3 0 .5.2.5.5s-.2.5-.5.5zm3-12h-9c-.3 0-.5-.2-.5-.5s.2-.5.5-.5h9c.3 0 .5.2.5.5s-.2.5-.5.5zm-3 2h-6c-.3 0-.5-.2-.5-.5s.2-.5.5-.5h6c.3 0 .5.2.5.5s-.2.5-.5.5z"/></svg>