<svg xmlns="http://www.w3.org/2000/svg" enable-background="new 0 0 450.229 297.495" viewBox="0 0 450.229 297.495"><path d="M198.112 167.073v18.94 66.126h10.721v40h12.333v-88.667h-12.333v.302l-5.01-74.2c-.22-3.258-1.515-6.198-3.52-8.494-.695.951-1.424 1.87-2.192 2.746V167.073zM136.021 186.013v-18.94-43.245c-.647-.737-1.263-1.507-1.858-2.295-1.79 2.226-2.947 4.991-3.153 8.041l-4.989 73.898h-11.687v88.667h12.333v-40h9.354V186.013zM87.046 168.075l-2.724-.475v18.665 65.874H94.5v40h12.333v-88.667H94.5v.302l-2.424-35.902c-.962.245-1.956.382-2.967.382C88.419 168.254 87.725 168.194 87.046 168.075zM22.23 186.265v-18.939-2.385l-5.726.71c-.491.061-.987.091-1.478.091-.264 0-.527-.023-.789-.04l-2.55 37.772H0v88.667h12.333v-40h9.897V186.265zM163.941 20.572c1.066 0 2.111.138 3.125.412 1.014-.273 2.059-.412 3.125-.412 6.617 0 12 5.383 12 12v.927c4.479-3.408 7.384-8.779 7.384-14.842C189.574 8.353 181.222 0 170.917 0c-10.304 0-18.657 8.353-18.657 18.657 0 2.661.566 5.188 1.57 7.478C155.963 22.797 159.693 20.572 163.941 20.572z"/><circle cx="62.917" cy="18.657" r="18.657"/><path d="M379.289,24.396c2.852,1.462,4.963,3.948,5.945,6.999c0.62,1.922,0.742,3.923,0.383,5.854
		c0.431,0.03,0.861,0.066,1.3,0.066c10.305,0,18.657-8.353,18.657-18.657C405.574,8.353,397.222,0,386.917,0
		c-10.304,0-18.657,8.353-18.657,18.657c0,1.876,0.284,3.684,0.799,5.392c1.475-0.634,3.088-0.978,4.761-0.978
		C375.708,23.071,377.6,23.53,379.289,24.396z"/><circle cx="278.917" cy="18.657" r="18.657"/><circle cx="110.167" cy="52.815" r="22.5"/><circle cx="224.917" cy="52.815" r="22.5"/><path d="M339.667 30.315c-12.426 0-22.5 10.073-22.5 22.5 0 12.427 10.074 22.5 22.5 22.5.007 0 .014 0 .021 0l18.262-35.607C353.866 34.022 347.202 30.315 339.667 30.315zM426.693 252.139h10.808v40h12.333v-88.667h-12.333v.301l-5.01-74.199c-.254-3.763-1.939-7.106-4.5-9.516l-1.299 1.701V252.139zM364.601 120.614l-.425-.556c-2.561 2.411-4.246 5.754-4.5 9.516l-4.989 73.898h-11.687v88.667h12.333v-40h9.267V120.614zM313.508 168.775v17.49 65.874h9.659v40H335.5v-88.667h-12.333v.302l-2.398-35.523c-.959.244-1.947.395-2.951.419L313.508 168.775zM247.763 186.265v-18.939-3.017l-4.796 1.158c-.016.004-.033.005-.049.009l-2.565 37.997h-11.687v88.667H241v-40h6.763V186.265zM80.322 186.265v-18.94-2.149l-17.285-3.015-6.581 2.703c-1.249.514-2.564.775-3.908.775-3.699 0-7.042-1.949-8.876-5.069l-17.442 2.162v4.594 18.94 98c0 6.83 5.537 12.363 12.363 12.363 6.828 0 12.365-5.533 12.365-12.363v-90.271h4.635v90.271c0 6.83 5.537 12.363 12.363 12.363 6.828 0 12.365-5.533 12.365-12.363V186.265zM75.776 81.946c0-12.427-10.072-22.5-22.5-22.5-12.426 0-22.5 10.073-22.5 22.5 0 12.427 10.074 22.5 22.5 22.5C65.704 104.446 75.776 94.372 75.776 81.946zM39.241 88.675h28.07c-2.909 4.711-8.104 7.868-14.035 7.868S42.15 93.386 39.241 88.675z"/><path d="M7.117 152.543c-.375 2.476.431 4.984 2.178 6.778 1.515 1.557 3.587 2.42 5.731 2.42.327 0 .656-.02.985-.061l26.691-3.308c-.714-2.301-.605-4.755.335-7.005 1.061-2.539 3.046-4.512 5.591-5.558l9.333-3.833c1.249-.513 2.565-.772 3.915-.772.385 0 .769.03 1.152.073-2.2-3.445-6.703-4.71-10.405-2.799l-6.481 3.345-21.198 2.627c1.539-6.432 3.238-10.651 4.731-13.406l2.144.861c-1.144 2.061-2.491 5.179-3.801 9.846l17.434-2.16 6.117-3.157c1.455-.751 3.086-1.149 4.716-1.149 3.875 0 7.386 2.138 9.161 5.578.148.288.28.581.4.877l11.415 1.991c-1.216-6.784-2.739-10.741-3.938-12.989l2.206-.739c1.51 2.958 3.273 8.013 4.518 16.548l-16.797-2.93c-1.486-.259-3.018-.093-4.415.481l-9.333 3.833c-4.087 1.679-6.039 6.353-4.36 10.439 1.679 4.086 6.357 6.04 10.439 4.36l7.196-2.955 24.956 4.353c.458.08.918.119 1.375.119 1.965 0 3.88-.724 5.361-2.063 1.827-1.649 2.793-4.048 2.619-6.503-1.555-21.928-6.266-35.681-14.401-42.044-4.232-3.309-8.172-3.623-10.203-3.5H33.959c-.051 0-.1.007-.15.008-1.891-.112-5.725.161-10.002 3.288C15.774 119.312 10.159 132.468 7.117 152.543zM309.273 167.177l-17.562.425-8.026 3.113c-1.325.514-2.717.774-4.14.774h-.001c-4.442 0-8.402-2.508-10.091-6.389-1.092-2.512-1.092-5.271-.013-7.783l-17.441 4.213v5.795 18.94 98c0 6.83 5.863 12.363 13.091 12.363 7.23 0 13.093-5.533 13.093-12.363v-90.271h4.907v90.271c0 6.83 5.863 12.363 13.09 12.363 7.23 0 13.093-5.533 13.093-12.363v-98-18.94V167.177zM280.636 104.446c13.159 0 23.823-10.073 23.823-22.5 0-12.427-10.665-22.5-23.823-22.5-13.157 0-23.824 10.073-23.824 22.5C256.812 94.372 267.479 104.446 280.636 104.446zM295.497 88.675c-3.08 4.711-8.581 7.868-14.861 7.868s-11.781-3.157-14.861-7.868H295.497z"/><path d="M310.951 113.672c-3.044-2.283-5.944-3.097-8.094-3.343-.57-.119-1.16-.186-1.767-.186h-40.907c-.397 0-.784.036-1.166.087-2.164-.004-5.845.508-9.9 3.308-8.505 5.873-14.45 19.029-17.672 39.103-.425 2.653.585 5.331 2.693 7.131 1.576 1.346 3.608 2.067 5.683 2.067.7 0 1.405-.082 2.099-.25l27.546-6.654c.77-.186 1.505-.477 2.188-.855.901-.893 1.973-1.627 3.177-2.171l6.597-4.643c3.751-2.64 4.526-7.652 1.731-11.195-2.795-3.543-8.102-4.275-11.854-1.635l-7.658 5.39-12.903 3.117c1.929-7.059 4.043-11.202 5.727-13.608l2.373.791c-1.23 1.628-2.913 4.537-4.598 9.597l8.332-2.013 7.272-5.118c1.897-1.335 4.148-2.041 6.51-2.041 3.432 0 6.703 1.55 8.752 4.146 3.358 4.258 2.701 10.185-1.338 13.711l1.508-.585c1.234-.478 2.533-.737 3.864-.769l16.262-.393c-1.549-9.914-3.747-14.753-5.174-16.985l2.322-.781c1.771 2.958 4.138 8.797 5.632 19.999l-18.98.459c-1.03.025-2.047.228-3.001.597l-9.883 3.833c-4.327 1.679-6.395 6.353-4.618 10.439 1.345 3.093 4.505 4.963 7.839 4.963 1.072 0 2.162-.193 3.215-.602l8.441-3.274 26.509-.641c2.312-.056 4.499-1.002 6.054-2.62 1.555-1.617 2.342-3.765 2.179-5.943C324.272 133.867 319.369 119.986 310.951 113.672zM167.066 104.194c12.402 0 22.456-10.032 22.498-22.423l-20.691-22.498c-.597-.047-1.198-.079-1.807-.079-.609 0-1.211.031-1.809.079l-20.689 22.496C144.609 94.161 154.666 104.194 167.066 104.194zM166.881 95.553c-6.149-.476-10.972-2.946-10.773-5.515.199-2.57 4.873-2.089 11.022-1.613 6.149.476 11.444.768 11.245 3.338C178.176 94.333 173.03 96.03 166.881 95.553z"/><path d="M194.112 186.019c0-.002 0-.004 0-.006v-63.742c12.6-13.101 15.266-38.695 15.546-41.816.202-2.245-.554-4.472-2.079-6.131L178.191 42.37v-9.797c0-4.418-3.582-8-8-8-1.109 0-2.165.226-3.125.634-.96-.408-2.016-.634-3.125-.634-4.418 0-8 3.582-8 8v9.797l-29.389 31.954c-1.526 1.659-2.281 3.886-2.079 6.131.281 3.121 2.948 28.717 15.548 41.816v44.796c0 .002 0 .004 0 .006v116.94c0 6.83 5.537 12.363 12.363 12.363 6.828 0 12.365-5.533 12.365-12.363v-90.272h4.635v90.272c0 6.83 5.537 12.363 12.363 12.363 6.828 0 12.365-5.533 12.365-12.363V186.019zM140.814 82.453l26.252-28.544 26.252 28.544c-1.249 8.83-4.456 21.04-9.572 27.439h-33.359C145.269 103.491 142.062 91.279 140.814 82.453zM422.692 187.132v-18.94-47.785l25.896-33.93c1.871-2.452 2.166-5.76.759-8.504l-23.875-46.55c-2.016-3.932-6.836-5.486-10.77-3.467-3.931 2.016-5.483 6.838-3.467 10.769l21.571 42.058-23.071 30.228H382.43l-23.07-30.228 21.57-42.058c2.017-3.932.464-8.753-3.468-10.769-3.931-2.018-8.752-.463-10.769 3.467l-23.874 46.55c-1.407 2.744-1.112 6.053.759 8.504l25.022 32.786v48.93 18.94 98c0 6.83 5.537 12.363 12.363 12.363 6.828 0 12.365-5.533 12.365-12.363V194.86h4.635v90.271c0 6.83 5.537 12.363 12.363 12.363 6.829 0 12.366-5.533 12.366-12.363V187.132z"/><path d="M395.646,105.312c12.428,0,22.5-10.073,22.5-22.5c0-12.427-10.072-22.5-22.5-22.5c-12.426,0-22.5,10.073-22.5,22.5
		C373.146,95.239,383.221,105.312,395.646,105.312z M409.681,87.842c-2.909,4.711-8.104,7.868-14.035,7.868
		s-11.126-3.157-14.035-7.868H409.681z"/></svg>